<?xml version="1.0" encoding="UTF-8"?>
<svg xmlns="http://www.w3.org/2000/svg" xmlns:xlink="http://www.w3.org/1999/xlink"
     width="296" height="212" viewBox="0 0 296 212">
<defs>
</defs>
<rect x="44" y="2" width="40" height="40" fill="#bbddbb" rx="3" ry="3" fill-opacity="1" />
<text x="64.0" y="22.0" font-size="16" fill="#ffffff" font-family="Monospace" font-weight="bold" text-anchor="middle" dominant-baseline="central">1</text>
<rect x="86" y="2" width="40" height="40" fill="#bbddbb" rx="3" ry="3" fill-opacity="1" />
<text x="106.0" y="22.0" font-size="16" fill="#ffffff" font-family="Monospace" font-weight="bold" text-anchor="middle" dominant-baseline="central">2</text>
<rect x="128" y="2" width="40" height="40" fill="#bbddbb" rx="3" ry="3" fill-opacity="1" />
<text x="148.0" y="22.0" font-size="16" fill="#ffffff" font-family="Monospace" font-weight="bold" text-anchor="middle" dominant-baseline="central">3</text>
<rect x="170" y="2" width="40" height="40" fill="#bbddbb" rx="3" ry="3" fill-opacity="1" />
<text x="190.0" y="22.0" font-size="16" fill="#ffffff" font-family="Monospace" font-weight="bold" text-anchor="middle" dominant-baseline="central">4</text>
<rect x="212" y="2" width="40" height="40" fill="#bbddbb" rx="3" ry="3" fill-opacity="1" />
<text x="232.0" y="22.0" font-size="16" fill="#ffffff" font-family="Monospace" font-weight="bold" text-anchor="middle" dominant-baseline="central">5</text>
<rect x="254" y="2" width="40" height="40" fill="#bbddbb" rx="3" ry="3" fill-opacity="1" />
<text x="274.0" y="22.0" font-size="16" fill="#ffffff" font-family="Monospace" font-weight="bold" text-anchor="middle" dominant-baseline="central">6</text>
<rect x="2" y="44" width="40" height="40" fill="#bbddbb" rx="3" ry="3" fill-opacity="1" />
<text x="22.0" y="64.0" font-size="16" fill="#ffffff" font-family="Monospace" font-weight="bold" text-anchor="middle" dominant-baseline="central">7</text>
<rect x="44" y="44" width="40" height="40" fill="#bbddbb" rx="3" ry="3" fill-opacity="1" />
<text x="64.0" y="64.0" font-size="16" fill="#ffffff" font-family="Monospace" font-weight="bold" text-anchor="middle" dominant-baseline="central">8</text>
<rect x="86" y="44" width="40" height="40" fill="#55aa55" rx="3" ry="3" fill-opacity="1" />
<text x="106.0" y="64.0" font-size="16" fill="#ffffff" font-family="Monospace" font-weight="bold" text-anchor="middle" dominant-baseline="central">9</text>
<rect x="128" y="44" width="40" height="40" fill="#009933" rx="3" ry="3" fill-opacity="1" />
<text x="148.0" y="64.0" font-size="16" fill="#ffffff" font-family="Monospace" font-weight="bold" text-anchor="middle" dominant-baseline="central">10</text>
<rect x="170" y="44" width="40" height="40" fill="#004d00" rx="3" ry="3" fill-opacity="1" />
<text x="190.0" y="64.0" font-size="16" fill="#ffffff" font-family="Monospace" font-weight="bold" text-anchor="middle" dominant-baseline="central">11</text>
<rect x="212" y="44" width="40" height="40" fill="#004d00" rx="3" ry="3" fill-opacity="1" />
<text x="232.0" y="64.0" font-size="16" fill="#ffffff" font-family="Monospace" font-weight="bold" text-anchor="middle" dominant-baseline="central">12</text>
<rect x="254" y="44" width="40" height="40" fill="#009933" rx="3" ry="3" fill-opacity="1" />
<text x="274.0" y="64.0" font-size="16" fill="#ffffff" font-family="Monospace" font-weight="bold" text-anchor="middle" dominant-baseline="central">13</text>
<rect x="2" y="86" width="40" height="40" fill="#006600" rx="3" ry="3" fill-opacity="1" />
<text x="22.0" y="106.0" font-size="16" fill="#ffffff" font-family="Monospace" font-weight="bold" text-anchor="middle" dominant-baseline="central">14</text>
<rect x="44" y="86" width="40" height="40" fill="#009933" rx="3" ry="3" fill-opacity="1" />
<text x="64.0" y="106.0" font-size="16" fill="#ffffff" font-family="Monospace" font-weight="bold" text-anchor="middle" dominant-baseline="central">15</text>
<rect x="86" y="86" width="40" height="40" fill="#004d00" rx="3" ry="3" fill-opacity="1" />
<text x="106.0" y="106.0" font-size="16" fill="#ffffff" font-family="Monospace" font-weight="bold" text-anchor="middle" dominant-baseline="central">16</text>
<rect x="128" y="86" width="40" height="40" fill="#004d00" rx="3" ry="3" fill-opacity="1" />
<text x="148.0" y="106.0" font-size="16" fill="#ffffff" font-family="Monospace" font-weight="bold" text-anchor="middle" dominant-baseline="central">17</text>
<rect x="170" y="86" width="40" height="40" fill="#009933" rx="3" ry="3" fill-opacity="1" />
<text x="190.0" y="106.0" font-size="16" fill="#ffffff" font-family="Monospace" font-weight="bold" text-anchor="middle" dominant-baseline="central">18</text>
<rect x="212" y="86" width="40" height="40" fill="#004d00" rx="3" ry="3" fill-opacity="1" />
<text x="232.0" y="106.0" font-size="16" fill="#ffffff" font-family="Monospace" font-weight="bold" text-anchor="middle" dominant-baseline="central">19</text>
<rect x="254" y="86" width="40" height="40" fill="#006600" rx="3" ry="3" fill-opacity="1" />
<text x="274.0" y="106.0" font-size="16" fill="#ffffff" font-family="Monospace" font-weight="bold" text-anchor="middle" dominant-baseline="central">20</text>
<rect x="2" y="128" width="40" height="40" fill="#004d00" rx="3" ry="3" fill-opacity="1" />
<text x="22.0" y="148.0" font-size="16" fill="#ffffff" font-family="Monospace" font-weight="bold" text-anchor="middle" dominant-baseline="central">21</text>
<rect x="44" y="128" width="40" height="40" fill="#006600" rx="3" ry="3" fill-opacity="1" />
<text x="64.0" y="148.0" font-size="16" fill="#ffffff" font-family="Monospace" font-weight="bold" text-anchor="middle" dominant-baseline="central">22</text>
<rect x="86" y="128" width="40" height="40" fill="#009933" rx="3" ry="3" fill-opacity="1" />
<text x="106.0" y="148.0" font-size="16" fill="#ffffff" font-family="Monospace" font-weight="bold" text-anchor="middle" dominant-baseline="central">23</text>
<rect x="128" y="128" width="40" height="40" fill="#004d00" rx="3" ry="3" fill-opacity="1" />
<text x="148.0" y="148.0" font-size="16" fill="#ffffff" font-family="Monospace" font-weight="bold" text-anchor="middle" dominant-baseline="central">24</text>
<rect x="170" y="128" width="40" height="40" fill="#009933" rx="3" ry="3" fill-opacity="1" />
<text x="190.0" y="148.0" font-size="16" fill="#ffffff" font-family="Monospace" font-weight="bold" text-anchor="middle" dominant-baseline="central">25</text>
<rect x="212" y="128" width="40" height="40" fill="#55aa55" rx="3" ry="3" fill-opacity="1" />
<text x="232.0" y="148.0" font-size="16" fill="#ffffff" font-family="Monospace" font-weight="bold" text-anchor="middle" dominant-baseline="central">26</text>
<rect x="254" y="128" width="40" height="40" fill="#009933" rx="3" ry="3" fill-opacity="1" />
<text x="274.0" y="148.0" font-size="16" fill="#ffffff" font-family="Monospace" font-weight="bold" text-anchor="middle" dominant-baseline="central">27</text>
<rect x="2" y="170" width="40" height="40" fill="#55aa55" rx="3" ry="3" fill-opacity="1" />
<text x="22.0" y="190.0" font-size="16" fill="#ffffff" font-family="Monospace" font-weight="bold" text-anchor="middle" dominant-baseline="central">28</text>
<rect x="44" y="170" width="40" height="40" fill="#009933" rx="3" ry="3" fill-opacity="1" />
<text x="64.0" y="190.0" font-size="16" fill="#ffffff" font-family="Monospace" font-weight="bold" text-anchor="middle" dominant-baseline="central">29</text>
<rect x="86" y="170" width="40" height="40" fill="#006600" rx="3" ry="3" fill-opacity="1" />
<text x="106.0" y="190.0" font-size="16" fill="#ffffff" font-family="Monospace" font-weight="bold" text-anchor="middle" dominant-baseline="central">30</text>
<rect x="128" y="170" width="40" height="40" fill="#bbddbb" rx="3" ry="3" fill-opacity="1" />
<text x="148.0" y="190.0" font-size="16" fill="#ffffff" font-family="Monospace" font-weight="bold" text-anchor="middle" dominant-baseline="central">31</text>
</svg>